{
  "accessors": [
    {
      "bufferView": 2,
      "componentType": 5126,
      "count": 3094,
      "max": [
        0.27109000086784363,
        0.43053099513053894,
        0.9389150142669678
      ],
      "min": [
        -0.27109000086784363,
        -0.3499490022659302,
        0.0
      ],
      "type": "VEC3"
    },
    {
      "bufferView": 2,
      "byteOffset": 37128,
      "componentType": 5126,
      "count": 3094,
      "max": [
        0.9999569654464722,
        0.9999911785125732,
        0.9999994039535522
      ],
      "min": [
        -0.9999569654464722,
        -1.0,
        -1.0
      ],
      "type": "VEC3"
    },
    {
      "bufferView": 3,
      "componentType": 5126,
      "count": 3094,
      "max": [
        1.0,
        0.9997320771217346,
        0.9998708367347717,
        1.0
      ],
      "min": [
        -0.9999919533729553,
        -0.999558687210083,
        -1.0,
        1.0
      ],
      "type": "VEC4"
    },
    {
      "bufferView": 1,
      "componentType": 5126,
      "count": 3094,
      "max": [
        0.9938030242919922,
        0.9884639978408813
      ],
      "min": [
        0.006407000124454498,
        0.0061969999223947525
      ],
      "type": "VEC2"
    },
    {
      "bufferView": 1,
      "byteOffset": 24752,
      "componentType": 5126,
      "count": 3094,
      "max": [
        0.9938030242919922,
        0.9884639978408813
      ],
      "min": [
        0.006407000124454498,
        0.0061969999223947525
      ],
      "type": "VEC2"
    },
    {
      "bufferView": 1,
      "byteOffset": 49504,
      "componentType": 5126,
      "count": 3094,
      "max": [
        0.9938030242919922,
        0.9884639978408813
      ],
      "min": [
        0.006407000124454498,
        0.0061969999223947525
      ],
      "type": "VEC2"
    },
    {
      "bufferView": 1,
      "byteOffset": 74256,
      "componentType": 5126,
      "count": 3094,
      "max": [
        0.9938030242919922,
        0.9884639978408813
      ],
      "min": [
        0.006407000124454498,
        0.0061969999223947525
      ],
      "type": "VEC2"
    },
    {
      "bufferView": 0,
      "componentType": 5125,
      "count": 16704,
      "type": "SCALAR"
    }
  ],
  "asset": {
    "extras": {
      "author": "Epic_devolepment (https://sketchfab.com/Epic_dev)",
      "license": "CC-BY-4.0 (http://creativecommons.org/licenses/by/4.0/)",
      "source": "https://sketchfab.com/3d-models/sus-15d02b6a7b2e48e2976524d6c432a27a",
      "title": "sus"
    },
    "generator": "Sketchfab-12.44.0",
    "version": "2.0"
  },
  "bufferViews": [
    {
      "buffer": 0,
      "byteLength": 66816,
      "name": "floatBufferViews",
      "target": 34963
    },
    {
      "buffer": 0,
      "byteLength": 99008,
      "byteOffset": 66816,
      "byteStride": 8,
      "name": "floatBufferViews",
      "target": 34962
    },
    {
      "buffer": 0,
      "byteLength": 74256,
      "byteOffset": 165824,
      "byteStride": 12,
      "name": "floatBufferViews",
      "target": 34962
    },
    {
      "buffer": 0,
      "byteLength": 49504,
      "byteOffset": 240080,
      "byteStride": 16,
      "name": "floatBufferViews",
      "target": 34962
    }
  ],
  "buffers": [
    {
      "byteLength": 289584,
      "uri": "scene.bin"
    }
  ],
  "images": [
    {
      "uri": "textures/Material.002_baseColor.png"
    },
    {
      "uri": "textures/Material.002_metallicRoughness.png"
    },
    {
      "uri": "textures/Material.002_normal.png"
    }
  ],
  "materials": [
    {
      "doubleSided": true,
      "name": "Material.002",
      "normalTexture": {
        "index": 2
      },
      "pbrMetallicRoughness": {
        "baseColorTexture": {
          "index": 0
        },
        "metallicFactor": 0.0,
        "metallicRoughnessTexture": {
          "index": 1
        },
        "roughnessFactor": 0.968458
      }
    }
  ],
  "meshes": [
    {
      "name": "Object_0",
      "primitives": [
        {
          "attributes": {
            "NORMAL": 1,
            "POSITION": 0,
            "TANGENT": 2,
            "TEXCOORD_0": 3,
            "TEXCOORD_1": 4,
            "TEXCOORD_2": 5,
            "TEXCOORD_3": 6
          },
          "indices": 7,
          "material": 0,
          "mode": 4
        }
      ]
    }
  ],
  "nodes": [
    {
      "children": [
        1
      ],
      "matrix": [
        1.0,
        0.0,
        0.0,
        0.0,
        0.0,
        2.220446049250313e-16,
        -1.0,
        0.0,
        0.0,
        1.0,
        2.220446049250313e-16,
        0.0,
        0.0,
        0.0,
        0.0,
        1.0
      ],
      "name": "Sketchfab_model"
    },
    {
      "children": [
        2
      ],
      "name": "root"
    },
    {
      "children": [
        3
      ],
      "matrix": [
        1.0,
        0.0,
        0.0,
        0.0,
        0.0,
        2.220446049250313e-16,
        1.0,
        0.0,
        0.0,
        -1.0,
        2.220446049250313e-16,
        0.0,
        0.0,
        0.0,
        0.0,
        1.0
      ],
      "name": "GLTF_SceneRootNode"
    },
    {
      "children": [
        4
      ],
      "matrix": [
        1.0,
        0.0,
        -0.0,
        0.0,
        -0.0,
        0.0,
        -1.0,
        0.0,
        0.0,
        1.0,
        0.0,
        0.0,
        0.0,
        0.0,
        0.0,
        1.0
      ],
      "name": "RootNode (gltf orientation matrix)_0"
    },
    {
      "children": [
        5
      ],
      "matrix": [
        1.4285714626312256,
        0.0,
        0.0,
        0.0,
        0.0,
        1.4285714626312256,
        2.297317994982785e-16,
        0.0,
        0.0,
        -2.297317994982785e-16,
        1.4285714626312256,
        0.0,
        0.0,
        -3.498939986457117e-05,
        -4.8088601033668965e-05,
        1.0
      ],
      "name": "RootNode (model correction matrix)_1"
    },
    {
      "children": [
        6
      ],
      "name": "0db7dfe01c3345e88f27a2a160d6485d.obj.cleaner.materialmerger.gles_2"
    },
    {
      "children": [
        7
      ],
      "name": "_3"
    },
    {
      "mesh": 0,
      "name": "Object_7"
    }
  ],
  "samplers": [
    {
      "magFilter": 9729,
      "minFilter": 9987,
      "wrapS": 10497,
      "wrapT": 10497
    }
  ],
  "scene": 0,
  "scenes": [
    {
      "name": "Sketchfab_Scene",
      "nodes": [
        0
      ]
    }
  ],
  "textures": [
    {
      "sampler": 0,
      "source": 0
    },
    {
      "sampler": 0,
      "source": 1
    },
    {
      "sampler": 0,
      "source": 2
    }
  ]
}
